# AST/ASF file generated using VICON BodyLanguage
# -----------------------------------------------
:version 1.10
:name VICON
:units
  mass 1.0
  length 0.45
  angle deg
:documentation
   .ast/.asf automatically generated from VICON data using
   VICON BodyBuilder and BodyLanguage model FoxedUp or BRILLIANT.MOD
:root
   order TX TY TZ RX RY RZ
   axis XYZ
   position 0 0 0  
   orientation 0 0 0 
:bonedata
  begin
     id 1 
     name lhipjoint
     direction 0.621036 -0.695554 0.361275 
     length 2.46325 
     axis 0 0 0  XYZ
  end
  begin
     id 2 
     name lfemur
     direction 0.34202 -0.939693 0  
     length 6.54784  
     axis 0 0 20  XYZ
    dof rx ry rz
    limits (-160.0 20.0)
           (-70.0 70.0)
           (-60.0 70.0)
  end
  begin
     id 3 
     name ltibia
     direction 0.34202 -0.939693 0   
     length 7.84737   
     axis 0 0 20   XYZ
    dof rx
    limits (-10.0 170.0)
  end
  begin
     id 4 
     name lfoot
     direction 0.0790693 -0.217241 0.97291   
     length 2.59747   
     axis -90 7.62852e-016 20   XYZ
    dof rx rz
    limits (-45.0 90.0)
           (-70.0 20.0)
  end
  begin
     id 5 
     name ltoes
     direction 1.53572e-011 -4.21898e-011 1   
     length 1.29919   
     axis -90 7.62852e-016 20   XYZ
    dof rx
    limits (-90.0 20.0)
  end
  begin
     id 6 
     name rhipjoint
     direction -0.602353 -0.708375 0.367935   
     length 2.41867  
     axis 0 0 0  XYZ 
  end
  begin
     id 7 
     name rfemur
     direction -0.34202 -0.939693 0   
     length 6.92065   
     axis 0 0 -20   XYZ
    dof rx ry rz
    limits (-160.0 20.0)
           (-70.0 70.0)
           (-70.0 60.0)
  end
  begin
     id 8 
     name rtibia
     direction -0.34202 -0.939693 0   
     length 7.88883   
     axis 0 0 -20   XYZ
    dof rx
    limits (-10.0 170.0)
 end
 begin
     id 9 
     name rfoot
     direction -0.0768692 -0.211196 0.974416   
     length 2.43714  
     axis -90 -7.62852e-016 -20   XYZ
    dof rx rz
    limits (-45.0 90.0)
           (-20.0 70.0)
  end
  begin
     id 10 
     name rtoes
     direction -1.53575e-011 -4.21933e-011 1   
     length 1.22113   
     axis -90 -7.62852e-016 -20   XYZ
    dof rx
    limits (-90.0 20.0)
  end
  begin
     id 11 
     name lowerback
     direction 0.0197937 0.98943 -0.143655   
     length 2.16931   
     axis 0 0 0   XYZ
    dof rx ry rz
    limits (-20.0 45.0)
           (-30.0 30.0)
           (-30.0 30.0)
  end
  begin
     id 12 
     name upperback
     direction -0.00183968 0.999975 0.00684288   
     length 2.17221   
     axis 0 0 0   XYZ
    dof rx ry rz
    limits (-20.0 45.0)
           (-30.0 30.0)
           (-30.0 30.0)
  end
  begin
     id 13 
     name thorax
     direction -0.00950244 0.997208 0.0740685   
     length 2.22549   
     axis 0 0 0   XYZ
    dof rx ry rz
    limits (-20.0 45.0)
           (-30.0 30.0)
           (-30.0 30.0)
  end
  begin
     id 14 
     name lowerneck
     direction 0.0218238 0.996215 0.0841425   
     length 1.77269   
     axis 0 0 0   XYZ
    dof rx ry rz
    limits (-20.0 45.0)
           (-30.0 30.0)
           (-30.0 30.0)
  end
  begin
     id 15 
     name upperneck
     direction -0.00430652 0.994214 -0.107332   
     length 1.76534   
     axis 0 0 0   XYZ
    dof rx ry rz
    limits (-20.0 45.0)
           (-30.0 30.0)
           (-30.0 30.0)
  end
  begin
     id 16
     name head
     direction -0.00328946 0.998959 -0.0454998  
     length 1.82634  
     axis 0 0 0   XYZ
    dof rx ry rz
    limits (-20.0 45.0)
           (-30.0 30.0)
           (-30.0 30.0)
  end
  begin
     id 17 
     name lclavicle
     direction 0.970962 0.239191 0.00450212  
     length 3.84872  
     axis 0 0 0   XYZ
    dof ry rz
    limits (-20.0 10.0)
           (0.0 20.0)
  end
  begin
     id 18 
     name lhumerus
     direction 1 -4.48966e-011 5.74696e-028   
     length 5.22771   
     axis 180 -30 -90   XYZ
    dof rx ry rz
    limits (-60.0 90.0)
           (-90.0 90.0)
           (-90.0 90.0)
  end
  begin
     id 19
     name lradius
     direction 1 -4.4896e-011 4.25109e-027   
     length 3.45251   
     axis 180 -30 -90   XYZ
    dof rx
    limits (-10.0 170.0)
  end
  begin
     id 20
     name lwrist
     direction 1 -4.48971e-011 1.15382e-027   
     length 1.72626   
     axis -5.52449e-016 90 90   XYZ
    dof ry
    limits (-180.0 0.0)
 end
  begin
     id 21 
     name lhand
     direction 1 -4.49034e-011 2.30765e-027   
     length 0.552119   
     axis -1.47248e-015 90 90   XYZ
    dof rx rz
    limits (-90.0 90.0)
           (-45.0 45.0)
  end
  begin
     id 22 
     name lfingers
     direction 1 -4.48951e-011 4.61529e-027   
     length 0.445133   
     axis -2.94495e-015 90 90   XYZ
    dof rx
    limits (0.0 90.0)
  end
  begin
     id 23
     name lthumb
     direction 0.707107 -6.34991e-011 0.707107   
     length 0.639124   
     axis -90 45 2.85299e-015   XYZ
    dof rx rz
    limits (-45.0 45.0)
           (-45.0 45.0)
  end
  begin
     id 24 
     name rclavicle
     direction -0.97424 0.222511 -0.0366699   
     length 3.73439  
     axis 0 0 0   XYZ 
    dof ry rz
    limits (-10.0 20.0)
           (-20.0 0.0)
  end
  begin
     id 25 
     name rhumerus
     direction -1 -4.48956e-011 -4.97258e-028  
     length 5.2398   
     axis 180 30 90   XYZ
    dof rx ry rz
    limits (-90.0 60.0)
           (-90.0 90.0)
           (-90.0 90.0)
  end
  begin
     id 26 
     name rradius
     direction -1 -4.4897e-011 -1.72611e-027   
     length 3.48042   
     axis 180 30 90   XYZ
    dof rx
    limits (-10.0 170.0)
  end
  begin
     id 27 
     name rwrist
     direction -1 -4.48976e-011 1.15382e-027   
     length 1.74021   
     axis -5.52449e-016 -90 -90   XYZ
    dof ry
    limits (-180.0 0.0)
  end
  begin
     id 28
     name rhand
     direction -1 -4.48963e-011 2.30765e-027   
     length 0.618713   
     axis -1.47248e-015 -90 -90   XYZ
    dof rx rz
    limits (-90.0 90.0)
           (-45.0 45.0)
  end
  begin
     id 29
     name rfingers
     direction -1 -4.4888e-011 4.61529e-027   
     length 0.498823   
     axis -2.94495e-015 -90 -90   XYZ
    dof rx
    limits (0.0 90.0)
  end
  begin
     id 30
     name rthumb
     direction -0.707107 -6.34968e-011 0.707107   
     length 0.716213   
     axis -90 -45 -2.85299e-015   XYZ
    dof rx rz
    limits (-45.0 45.0)
           (-45.0 45.0)
  end
:hierarchy
  begin
    root lhipjoint rhipjoint lowerback
    lhipjoint lfemur
    lfemur ltibia
    ltibia lfoot
    lfoot ltoes
    rhipjoint rfemur
    rfemur rtibia
    rtibia rfoot
    rfoot rtoes
    lowerback upperback
    upperback thorax
    thorax lowerneck lclavicle rclavicle
    lowerneck upperneck
    upperneck head
    lclavicle lhumerus
    lhumerus lradius
    lradius lwrist
    lwrist lhand lthumb
    lhand lfingers
    rclavicle rhumerus
    rhumerus rradius
    rradius rwrist
    rwrist rhand rthumb
    rhand rfingers
  end

#!OML:ASF G:\JayActor3\Patient Classification 1\Patient 1\Session 5\male.ASF
:FULLY-SPECIFIED
:DEGREES
91
root -38.8532 17.0674 -21.1498 0.0828023 47.9867 -6.65566
lowerback 1.36631 -1.24616 3.54292
upperback 1.45501 -1.62816 0.558618
thorax 0.644224 -0.782586 -1.39768
lowerneck -6.40024 0.11294 1.54926
upperneck 7.58058 -0.100593 1.28899
head 3.588 0.0565425 0.146507
rclavicle 2.44008e-014 -5.56597e-015
rhumerus -32.0022 -10.6732 -86.8756
rradius 22.4021
rwrist 8.29507
rhand -19.0355 -6.98017
rfingers 7.12502
rthumb 7.27088 -36.8352
lclavicle 2.44008e-014 -5.56597e-015
lhumerus -27.7281 23.334 80.0183
lradius 12.5959
lwrist 3.68551
lhand -21.908 16.8048
lfingers 7.12502
lthumb 4.49763 46.737
rfemur -9.43006 4.97433 28.5736
rtibia 28.1261
rfoot -26.3493 -14.8755
rtoes 6.7223
lfemur -2.10341 6.04546 -18.3645
ltibia 14.8151
lfoot -17.6703 -0.516908
ltoes 1.92905
92
root -38.8532 17.067 -21.1522 0.0722674 47.9957 -6.6648
lowerback 1.37579 -1.24479 3.54152
upperback 1.45206 -1.62586 0.561198
thorax 0.636113 -0.781622 -1.39402
lowerneck -6.39236 0.115686 1.55163
upperneck 7.59253 -0.0973565 1.29243
head 3.59065 0.0584953 0.14741
rclavicle 4.40308e-014 -3.97569e-015
rhumerus -32.009 -10.6598 -86.8851
rradius 22.402
rwrist 8.29759
rhand -19.0339 -6.97874
rfingers 7.12502
rthumb 7.27246 -36.8338
lclavicle 4.40308e-014 -3.97569e-015
lhumerus -27.732 23.2978 80.0282
lradius 12.6035
lwrist 3.73266
lhand -21.9284 16.8114
lfingers 7.12502
lthumb 4.47794 46.7441
rfemur -9.43652 4.95603 28.5698
rtibia 28.1361
rfoot -26.323 -14.8994
rtoes 6.552
lfemur -2.10239 6.09002 -18.3557
ltibia 14.8092
lfoot -17.6855 -0.575242
ltoes 1.83399
93
root -38.8532 17.0667 -21.1545 0.0629187 48.0036 -6.67201
lowerback 1.38525 -1.24339 3.5389
upperback 1.44839 -1.6235 0.563183
thorax 0.627279 -0.780663 -1.39028
lowerneck -6.38296 0.118241 1.55338
upperneck 7.60351 -0.09435 1.29687
head 3.59267 0.0603446 0.148735
rclavicle -6.26172e-015 -2.78299e-015
rhumerus -32.0162 -10.6463 -86.8946
rradius 22.4009
rwrist 8.30159
rhand -19.0322 -6.97696
rfingers 7.12502
rthumb 7.27407 -36.8319
lclavicle -6.26172e-015 -2.78299e-015
lhumerus -27.7372 23.263 80.0365
lradius 12.6097
lwrist 3.77588
lhand -21.9466 16.8198
lfingers 7.12502
lthumb 4.46034 46.7528
rfemur -9.4426 4.93841 28.5648
rtibia 28.1462
rfoot -26.2973 -14.9226
rtoes 6.38242
lfemur -2.10076 6.13301 -18.3486
ltibia 14.8034
lfoot -17.701 -0.630583
ltoes 1.7382
94
root -38.8533 17.0663 -21.1568 0.0531869 48.01 -6.67976
lowerback 1.39428 -1.24182 3.53674
upperback 1.4441 -1.62094 0.564947
thorax 0.618055 -0.779611 -1.38702
lowerneck -6.37191 0.120561 1.55457
upperneck 7.61321 -0.0916064 1.30202
head 3.59391 0.0620578 0.150377
rclavicle 1.27222e-014 -1.55052e-014
rhumerus -32.0238 -10.6307 -86.9049
rradius 22.3996
rwrist 8.30515
rhand -19.0309 -6.97502
rfingers 7.12502
rthumb 7.2753 -36.8299
lclavicle 1.27222e-014 -1.55052e-014
lhumerus -27.7439 23.2299 80.0428
lradius 12.6152
lwrist 3.81565
lhand -21.9621 16.8294
lfingers 7.12502
lthumb 4.44538 46.7627
rfemur -9.4486 4.92365 28.5613
rtibia 28.1565
rfoot -26.2717 -14.9492
rtoes 6.21278
lfemur -2.09895 6.1736 -18.3412
ltibia 14.7979
lfoot -17.7173 -0.682305
ltoes 1.64764
95
root -38.8534 17.0659 -21.159 0.043926 48.0151 -6.68692
lowerback 1.40332 -1.24018 3.53411
upperback 1.43919 -1.61825 0.566308
thorax 0.608189 -0.778521 -1.38391
lowerneck -6.36238 0.123105 1.55586
upperneck 7.62363 -0.0886966 1.30809
head 3.59571 0.0639104 0.152313
rclavicle -2.82274e-014 -1.74931e-014
rhumerus -32.0317 -10.6138 -86.9158
rradius 22.3981
rwrist 8.30875
rhand -19.0295 -6.97349
rfingers 7.12502
rthumb 7.27672 -36.8284
lclavicle -2.82274e-014 -1.74931e-014
lhumerus -27.7507 23.1948 80.0489
lradius 12.6193
lwrist 3.85464
lhand -21.9747 16.8403
lfingers 7.12502
lthumb 4.43315 46.7739
rfemur -9.45451 4.9097 28.5577
rtibia 28.1669
rfoot -26.2466 -14.9759
rtoes 6.04402
lfemur -2.09706 6.21372 -18.3343
ltibia 14.7927
lfoot -17.7341 -0.732096
ltoes 1.5602
96
root -38.8535 17.0655 -21.1612 0.0347271 48.0184 -6.69377
lowerback 1.41195 -1.2382 3.53173
upperback 1.43372 -1.61513 0.567154
thorax 0.597985 -0.777221 -1.38147
lowerneck -6.35162 0.125563 1.55745
upperneck 7.63274 -0.0858998 1.31435
head 3.59681 0.0657055 0.154251
rclavicle -3.57315e-014 8.34896e-015
rhumerus -32.0401 -10.5946 -86.9279
rradius 22.3965
rwrist 8.31087
rhand -19.0282 -6.97203
rfingers 7.12502
rthumb 7.27792 -36.8269
lclavicle -3.57315e-014 8.34896e-015
lhumerus -27.7584 23.1603 80.0533
lradius 12.6216
lwrist 3.88978
lhand -21.985 16.8504
lfingers 7.12502
lthumb 4.4233 46.7842
rfemur -9.46004 4.89608 28.554
rtibia 28.1772
rfoot -26.2215 -15.0008
rtoes 5.87598
lfemur -2.09487 6.2512 -18.3279
ltibia 14.788
lfoot -17.7513 -0.777349
ltoes 1.47562
97
root -38.8536 17.0651 -21.1634 0.0245504 48.0199 -6.7017
lowerback 1.42032 -1.23593 3.53041
upperback 1.42794 -1.61163 0.567762
thorax 0.587585 -0.775729 -1.37988
lowerneck -6.34077 0.127815 1.55936
upperneck 7.64128 -0.0834102 1.32071
head 3.59769 0.0673558 0.156146
rclavicle -5.57094e-014 8.34896e-015
rhumerus -32.0483 -10.5764 -86.9399
rradius 22.3939
rwrist 8.31473
rhand -19.0269 -6.97103
rfingers 7.12502
rthumb 7.27916 -36.8258
lclavicle -5.57094e-014 8.34896e-015
lhumerus -27.7671 23.128 80.0558
lradius 12.623
lwrist 3.91974
lhand -21.9925 16.864
lfingers 7.12502
lthumb 4.41598 46.7979
rfemur -9.46503 4.88245 28.5513
rtibia 28.1872
rfoot -26.196 -15.0243
rtoes 5.70719
lfemur -2.09233 6.28699 -18.3208
ltibia 14.7838
lfoot -17.7691 -0.819171
ltoes 1.397
98
root -38.8537 17.0647 -21.1655 0.0151976 48.0202 -6.70873
lowerback 1.42836 -1.23366 3.52843
upperback 1.42176 -1.60814 0.568079
thorax 0.576976 -0.774257 -1.37821
lowerneck -6.32984 0.130387 1.56079
upperneck 7.64943 -0.0804867 1.32764
head 3.59841 0.0692266 0.158336
rclavicle 6.82825e-014 -8.34896e-015
rhumerus -32.0561 -10.5571 -86.9523
rradius 22.3908
rwrist 8.3192
rhand -19.0262 -6.97205
rfingers 7.12502
rthumb 7.27983 -36.8268
lclavicle 6.82825e-014 -8.34896e-015
lhumerus -27.7774 23.1028 80.0546
lradius 12.6231
lwrist 3.93877
lhand -21.996 16.8791
lfingers 7.12502
lthumb 4.41265 46.8131
rfemur -9.46988 4.86991 28.5483
rtibia 28.1968
rfoot -26.1708 -15.048
rtoes 5.5402
lfemur -2.08995 6.32123 -18.3145
ltibia 14.7802
lfoot -17.7867 -0.858268
ltoes 1.32325
99
root -38.8538 17.0644 -21.1675 0.00592509 48.0192 -6.71576
lowerback 1.43676 -1.23113 3.52672
upperback 1.41461 -1.60425 0.568248
thorax 0.565166 -0.772617 -1.37684
lowerneck -6.31812 0.132332 1.56145
upperneck 7.65727 -0.0783683 1.33533
head 3.59888 0.0707032 0.16087
rclavicle 2.17669e-014 -1.39149e-014
rhumerus -32.0654 -10.5357 -86.9647
rradius 22.3882
rwrist 8.32214
rhand -19.0251 -6.97335
rfingers 7.12502
rthumb 7.28093 -36.8281
lclavicle 2.17669e-014 -1.39149e-014
lhumerus -27.7899 23.0827 80.0496
lradius 12.6218
lwrist 3.94459
lhand -21.9897 16.8998
lfingers 7.12502
lthumb 4.41867 46.8337
rfemur -9.47448 4.85794 28.5456
rtibia 28.206
rfoot -26.1449 -15.0709
rtoes 5.37344
lfemur -2.08779 6.35386 -18.3084
ltibia 14.7774
lfoot -17.8042 -0.894026
ltoes 1.25057
